# xmcd CD database file
#
# Track frame offsets:
#	150
#	30826
#	56800
#	72165
#	91789
#	104024
#	124398
#	138612
#	153525
#	168128
#	199812
#	215871
#	242104
#	266821
#	284525
#
# Disc length: 4120 seconds
#
# Revision: 0
# Processed by: cddbd v1.5.1PL0 Copyright (c) Steve Scherf et al.
# Submitted via: CDex 1.51
#
DISCID=e910160f
DTITLE=Various Artist - 光合成
DYEAR=2001
DGENRE=Japanese Pop
TTITLE0=kate
TTITLE1=八王子
TTITLE2=ノミネート
TTITLE3=水母
TTITLE4=降り月
TTITLE5=惑星のブルース
TTITLE6=ざざん
TTITLE7=くらげ
TTITLE8=ぶーぶー
TTITLE9=ナツヤスミ
TTITLE10=シリーズ最終回
TTITLE11=いちぺえじのふるさと
TTITLE12=Last Scene
TTITLE13=サマー
TTITLE14=ORANGE RIDER
EXTD=YEAR: 2001
EXTT0=
EXTT1=
EXTT2=
EXTT3=
EXTT4=
EXTT5=
EXTT6=
EXTT7=
EXTT8=
EXTT9=
EXTT10=
EXTT11=
EXTT12=
EXTT13=
EXTT14=
PLAYORDER=
